<svg xmlns="http://www.w3.org/2000/svg" viewBox="0 0 512 512" role="img" aria-label="Jarramplas - El Juego">
  <defs>
    <linearGradient id="bg" x1="0" y1="0" x2="1" y2="1">
      <stop offset="0" stop-color="#2b211f"/>
      <stop offset="0.55" stop-color="#6d2e1f"/>
      <stop offset="1" stop-color="#151313"/>
    </linearGradient>
    <radialGradient id="glow" cx="50%" cy="35%" r="65%">
      <stop offset="0" stop-color="#f7d36a" stop-opacity="0.65"/>
      <stop offset="1" stop-color="#f7d36a" stop-opacity="0"/>
    </radialGradient>
  </defs>
  <rect width="512" height="512" rx="112" fill="url(#bg)"/>
  <rect width="512" height="512" rx="112" fill="url(#glow)"/>
  <path d="M114 370c44-22 93-33 146-33 52 0 98 11 138 33" fill="none" stroke="#f1b64b" stroke-width="28" stroke-linecap="round"/>
  <ellipse cx="256" cy="259" rx="112" ry="128" fill="#1f2426" stroke="#f1b64b" stroke-width="18"/>
  <path d="M156 239c30-42 61-74 96-96 42 22 76 55 103 96" fill="none" stroke="#f7d36a" stroke-width="18" stroke-linecap="round"/>
  <path d="M186 311c39 25 101 25 140 0" fill="none" stroke="#f7d36a" stroke-width="17" stroke-linecap="round"/>
  <circle cx="216" cy="260" r="18" fill="#f7d36a"/>
  <circle cx="296" cy="260" r="18" fill="#f7d36a"/>
  <path d="M148 127l60 40M364 127l-60 40" stroke="#f1b64b" stroke-width="20" stroke-linecap="round"/>
  <path d="M136 404h240" stroke="#fff4c8" stroke-width="26" stroke-linecap="round"/>
  <text x="256" y="438" text-anchor="middle" font-family="Arial, Helvetica, sans-serif" font-size="58" font-weight="900" fill="#151313">J</text>
</svg>
